<svg xmlns="http://www.w3.org/2000/svg" width="30.849" height="23.136" viewBox="0 0 30.849 23.136">
  <path fill='#40ADA7' id="Icon_metro-contacts-mail" data-name="Icon metro-contacts-mail" d="M29.563,12.854V11.568l-3.856,2.571-3.856-2.571v1.285l3.856,2.571Zm1.285-6.427H5.141A2.57,2.57,0,0,0,2.571,9V26.992a2.57,2.57,0,0,0,2.571,2.571H30.849a2.559,2.559,0,0,0,2.558-2.571L33.419,9a2.57,2.57,0,0,0-2.571-2.571ZM12.854,10.283A3.856,3.856,0,1,1,9,14.139a3.859,3.859,0,0,1,3.856-3.856Zm7.712,15.424H5.141V24.422c0-2.571,5.141-3.985,7.712-3.985s7.712,1.414,7.712,3.985Zm10.283-7.712H20.566V10.283H30.849Z" transform="translate(-2.571 -6.427)"/>
</svg>