<svg class="mt-5" version="1.0" xmlns="http://www.w3.org/2000/svg" style="width: 70%;" viewBox="0 0 1603.000000 1183.000000" preserveAspectRatio="xMidYMid meet">
<metadata>
Created by potrace 1.15, written by Peter Selinger 2001-2017
</metadata>
<g transform="translate(0.000000,1183.000000) scale(0.100000,-0.100000)"
fill="#707173" stroke="none">
<path d="M4295 8876 c-37 -17 -80 -62 -94 -99 -8 -20 -11 -501 -11 -1558 l0
-1529 -25 0 c-78 0 -128 51 -197 200 -90 193 -108 228 -144 282 -62 90 -133
156 -213 196 -74 37 -76 37 -200 37 -70 0 -178 -4 -241 -9 -292 -22 -520 81
-585 265 -8 23 -24 121 -36 218 -24 209 -41 299 -76 395 l-26 71 29 20 c16 11
62 52 102 91 78 77 89 107 52 144 -35 35 -69 26 -131 -36 -31 -31 -61 -54 -67
-51 -5 4 -12 68 -16 144 -4 75 -12 145 -17 155 -14 26 -58 34 -88 17 -26 -15
-26 -16 -26 -142 0 -70 -1 -127 -2 -127 -1 0 -38 43 -82 95 -88 102 -112 114
-151 75 -35 -35 -26 -72 39 -152 32 -40 72 -86 90 -102 39 -38 39 -46 -1 -37
-43 10 -94 36 -139 72 -20 16 -49 29 -63 29 -35 0 -66 -33 -66 -70 0 -24 10
-38 52 -71 79 -63 149 -91 241 -97 l79 -5 20 -46 c32 -74 56 -195 73 -366 19
-189 45 -309 82 -377 97 -178 382 -292 686 -274 397 22 372 24 432 -24 63 -50
114 -126 182 -270 101 -215 124 -257 170 -309 52 -60 129 -100 207 -108 l56
-6 0 -673 c0 -451 4 -682 11 -701 14 -38 57 -83 96 -99 48 -21 6998 -21 7046
0 39 16 82 61 96 99 8 19 11 255 11 717 l0 690 25 16 c48 31 120 44 335 59
297 20 337 30 400 101 41 47 68 109 110 249 37 126 57 170 103 221 72 83 178
126 420 169 176 31 234 48 310 88 104 55 198 184 228 314 11 48 13 50 93 91
128 66 256 191 256 252 0 36 -29 60 -72 60 -32 0 -40 -6 -72 -50 -33 -46 -146
-140 -167 -140 -5 0 9 23 31 51 48 61 120 205 120 241 0 33 -29 58 -66 58 -38
0 -57 -16 -74 -60 -7 -19 -29 -62 -49 -95 l-36 -60 -5 118 c-5 130 -14 147
-70 147 -53 0 -64 -28 -70 -177 l-5 -135 -25 42 c-60 100 -65 105 -97 108 -38
4 -73 -26 -73 -62 0 -56 89 -182 175 -247 52 -39 53 -40 44 -77 -14 -65 -39
-112 -82 -159 -69 -75 -159 -110 -397 -158 -223 -44 -339 -101 -445 -217 -64
-72 -126 -193 -151 -298 -31 -133 -55 -169 -129 -189 -22 -7 -132 -16 -245
-21 -113 -6 -231 -16 -262 -24 l-58 -13 0 1498 c0 1034 -3 1506 -11 1526 -14
38 -57 83 -96 99 -26 11 -116 14 -438 14 l-405 0 0 -185 0 -185 163 0 c182 0
212 -8 255 -70 l22 -33 -2 -1998 -3 -1999 -38 -37 -37 -38 -3041 0 -3040 0
-39 41 c-31 34 -39 51 -45 95 -3 30 -5 925 -3 1989 3 1914 3 1935 23 1969 11
19 33 43 48 55 l28 21 2740 3 2739 2 0 185 0 185 -2972 0 c-2462 -1 -2978 -3
-3003 -14z m3579 -108 c37 -53 7 -121 -54 -121 -42 0 -70 28 -70 71 0 48 24
72 71 72 28 0 42 -6 53 -22z"/>
<path d="M6347 6992 c-38 -42 -24 -70 95 -189 l112 -113 -112 -113 c-101 -103
-112 -118 -112 -150 0 -39 27 -67 64 -67 11 0 69 49 138 117 l118 117 118
-117 c128 -127 145 -135 188 -91 40 39 26 65 -99 191 l-111 113 117 118 c64
65 117 124 117 131 0 16 -20 54 -34 63 -6 4 -24 8 -40 8 -24 0 -50 -21 -143
-112 l-113 -112 -113 112 c-94 93 -119 112 -144 112 -16 0 -37 -8 -46 -18z"/>
<path d="M8687 6998 c-9 -7 -19 -26 -23 -41 -6 -25 4 -38 112 -147 l118 -120
-117 -118 c-126 -128 -135 -145 -92 -187 42 -43 59 -34 187 92 l118 117 118
-117 c69 -68 127 -117 138 -117 37 0 64 28 64 67 0 32 -11 47 -112 150 l-112
113 112 113 c94 94 112 117 112 143 0 38 -27 64 -65 64 -22 0 -51 -23 -141
-112 l-114 -112 -114 112 c-92 90 -120 112 -143 112 -16 0 -37 -6 -46 -12z"/>
<path d="M6230 5840 c-25 -25 -26 -52 -2 -73 16 -15 157 -16 1590 -18 1494 -1
1574 -1 1592 16 25 23 25 50 0 75 -20 20 -33 20 -1590 20 -1557 0 -1570 0
-1590 -20z"/>
<path d="M4363 3763 c-22 -32 -43 -64 -47 -70 -6 -10 44 -13 236 -13 l244 0
32 65 c18 36 32 68 32 70 0 3 -103 5 -229 5 l-228 0 -40 -57z"/>
<path d="M5001 3801 c-6 -10 -19 -41 -30 -70 l-21 -51 799 0 798 0 12 57 c6
31 11 62 11 70 0 11 -137 13 -780 13 -749 0 -780 -1 -789 -19z"/>
<path d="M6725 3808 c-7 -20 -24 -102 -25 -115 0 -10 231 -13 1120 -13 l1120
0 -6 43 c-4 23 -10 53 -14 67 l-6 25 -1093 3 c-868 2 -1093 0 -1096 -10z"/>
<path d="M9070 3807 c0 -8 5 -39 11 -70 l12 -57 798 0 799 0 -9 23 c-5 12 -18
43 -30 70 l-20 47 -781 0 c-643 0 -780 -2 -780 -13z"/>
<path d="M10780 3815 c0 -2 14 -34 32 -70 l32 -65 244 0 c194 0 241 3 235 13
-4 7 -26 38 -47 70 l-39 57 -228 0 c-126 0 -229 -2 -229 -5z"/>
<path d="M4180 3495 c-27 -41 -50 -77 -50 -80 0 -3 121 -5 269 -5 l269 0 36
76 c20 42 36 78 36 80 0 2 -115 4 -255 4 l-254 0 -51 -75z"/>
<path d="M4876 3503 c-16 -38 -30 -74 -33 -80 -4 -10 165 -13 825 -13 l830 0
12 73 c7 39 14 75 17 80 2 4 -362 7 -810 7 l-813 0 -28 -67z"/>
<path d="M6675 3558 c-5 -15 -25 -127 -25 -140 0 -4 527 -8 1170 -8 929 0
1170 3 1170 13 0 11 -8 51 -25 125 l-5 22 -1141 0 c-903 0 -1141 -3 -1144 -12z"/>
<path d="M9126 3498 c8 -40 14 -76 14 -80 0 -5 374 -8 831 -8 457 0 829 3 827
8 -1 4 -16 40 -32 80 l-29 72 -812 0 -813 0 14 -72z"/>
<path d="M10900 3566 c0 -2 16 -38 35 -80 l36 -76 269 0 c149 0 270 3 270 6 0
3 -23 39 -52 80 l-52 74 -253 0 c-139 0 -253 -2 -253 -4z"/>
<path d="M4050 3292 c-6 -2 -42 -51 -81 -108 l-69 -104 305 0 305 0 25 49 c13
27 36 75 49 105 l25 55 -275 3 c-151 2 -279 1 -284 0z"/>
<path d="M5616 3290 l-830 -5 -37 -90 c-21 -49 -39 -96 -39 -103 0 -10 176
-12 863 -10 l862 3 17 85 c21 104 21 117 6 121 -7 2 -386 2 -842 -1z"/>
<path d="M7814 3292 l-1191 -2 -16 -93 c-10 -51 -17 -99 -17 -105 0 -9 284
-12 1230 -12 1165 0 1230 1 1229 18 -1 27 -34 190 -39 194 -3 2 -541 2 -1196
0z"/>
<path d="M11293 3290 l-262 -5 49 -102 49 -103 302 0 c270 0 301 2 295 16 -10
27 -128 194 -136 194 -5 0 -14 1 -22 3 -7 1 -131 0 -275 -3z"/>
<path d="M9170 3278 c0 -6 7 -54 17 -105 l16 -93 864 0 c684 0 863 3 863 13
-1 6 -18 53 -39 102 l-38 90 -841 3 c-649 2 -842 -1 -842 -10z"/>
<path d="M3463 2832 c-42 -32 -53 -81 -53 -229 0 -156 10 -203 47 -233 l26
-20 4337 0 c4336 0 4337 0 4363 20 38 30 50 100 45 260 -5 148 -15 183 -59
206 -24 12 -629 14 -4356 14 -4085 0 -4329 -1 -4350 -18z"/>
</g>
</svg>