<?xml version="1.0" encoding="utf-8"?>
<!-- Generator: Adobe Illustrator 24.0.2, SVG Export Plug-In . SVG Version: 6.00 Build 0)  -->
<svg version="1.1" id="Layer_1" xmlns="http://www.w3.org/2000/svg" xmlns:xlink="http://www.w3.org/1999/xlink" x="0px" y="0px"
	 viewBox="0 0 20 20" style="enable-background:new 0 0 20 20;" xml:space="preserve">
<style type="text/css">
	.st0{fill:#4DB3AD;}
</style>
<path id="Icon_metro-cross" class="st0" d="M19.82,16.07L19.82,16.07L13.75,10l6.07-6.07l0,0c0.24-0.24,0.24-0.64,0-0.88l-2.87-2.87
	c-0.24-0.24-0.64-0.24-0.88,0l0,0L10,6.25L3.93,0.18l0,0c-0.24-0.24-0.64-0.24-0.88,0L0.18,3.05c-0.24,0.24-0.24,0.64,0,0.88l0,0
	L6.25,10l-6.07,6.07l0,0c-0.24,0.24-0.24,0.64,0,0.88l2.87,2.86c0.24,0.24,0.64,0.24,0.88,0l0,0L10,13.75l6.07,6.07l0,0
	c0.24,0.24,0.64,0.24,0.88,0l2.87-2.87C20.06,16.71,20.06,16.31,19.82,16.07L19.82,16.07z"/>
</svg>