<?xml version="1.0" encoding="utf-8"?>
<!-- Generator: Adobe Illustrator 24.0.2, SVG Export Plug-In . SVG Version: 6.00 Build 0)  -->
<svg version="1.1" id="Layer_1" xmlns="http://www.w3.org/2000/svg" xmlns:xlink="http://www.w3.org/1999/xlink" x="0px" y="0px"
	 viewBox="0 0 56.32 62.5" style="enable-background:new 0 0 56.32 62.5;" xml:space="preserve">
<style type="text/css">
	.st0{fill:url(#Icon_awesome-building_1_);}
</style>
<linearGradient id="Icon_awesome-building_1_" gradientUnits="userSpaceOnUse" x1="3.3821" y1="286.2244" x2="3.3821" y2="285.2244" gradientTransform="matrix(50 0 0 -56.0001 -140.9443 16031.4033)">
	<stop  offset="0" style="stop-color:#00D3A8"/>
	<stop  offset="1" style="stop-color:#01C0CF"/>
</linearGradient>
<path id="Icon_awesome-building" class="st0" d="M51.82,55.3h-2.23V5.42c-0.01-1.46-1.21-2.64-2.68-2.63c0,0,0,0,0,0H9.41
	C7.95,2.78,6.75,3.96,6.73,5.42c0,0,0,0,0,0V55.3H4.5c-0.73-0.01-1.33,0.58-1.34,1.31v2.19h50v-2.19
	C53.15,55.88,52.55,55.29,51.82,55.3z M17.45,11.11c0.01-0.73,0.61-1.32,1.34-1.31h4.46c0.73-0.01,1.33,0.58,1.34,1.31v4.38
	c-0.01,0.73-0.61,1.32-1.34,1.31c0,0,0,0,0,0h-4.46c-0.73,0.01-1.33-0.58-1.34-1.31V11.11z M17.45,21.61
	c0.01-0.73,0.61-1.32,1.34-1.31h4.46c0.73-0.01,1.33,0.58,1.34,1.31v4.38c-0.01,0.73-0.61,1.32-1.34,1.31c0,0,0,0,0,0h-4.46
	c-0.73,0.01-1.33-0.58-1.34-1.31V21.61z M23.25,37.8h-4.46c-0.73,0.01-1.33-0.58-1.34-1.31v-4.38c0.01-0.73,0.61-1.32,1.34-1.31
	h4.46c0.73-0.01,1.33,0.58,1.34,1.31v4.38C24.58,37.22,23.98,37.8,23.25,37.8C23.25,37.8,23.25,37.8,23.25,37.8z M31.73,55.3h-7.14
	v-9.19c0.01-0.73,0.61-1.32,1.34-1.31h4.46c0.73-0.01,1.33,0.58,1.34,1.31V55.3z M38.87,36.48c-0.01,0.73-0.61,1.32-1.34,1.31h-4.46
	c-0.73,0.01-1.33-0.58-1.34-1.31v-4.38c0.01-0.73,0.61-1.32,1.34-1.31h4.46c0.73-0.01,1.33,0.58,1.34,1.31V36.48z M38.87,25.98
	c-0.01,0.73-0.61,1.32-1.34,1.31h-4.46c-0.73,0.01-1.33-0.58-1.34-1.31v-4.38c0.01-0.73,0.61-1.32,1.34-1.31h4.46
	c0.73-0.01,1.33,0.58,1.34,1.31V25.98z M38.87,15.48c-0.01,0.73-0.61,1.32-1.34,1.31h-4.46c-0.73,0.01-1.33-0.58-1.34-1.31v-4.38
	c0.01-0.73,0.61-1.32,1.34-1.31h4.46c0.73-0.01,1.33,0.58,1.34,1.31V15.48z"/>
</svg>
