<svg id="Layer_1" data-name="Layer 1" xmlns="http://www.w3.org/2000/svg" xmlns:xlink="http://www.w3.org/1999/xlink" viewBox="0 0 40 40"><defs><style>.cls-1{fill:url(#linear-gradient);}.cls-2{fill:none;stroke:#fff;stroke-miterlimit:10;stroke-width:0.89px;}.cls-3{fill:#fff;}</style><linearGradient id="linear-gradient" x1="7.37" y1="32.18" x2="8.26" y2="32.18" gradientTransform="matrix(44.76, 0, 0, -44.76, -329.76, 1460.28)" gradientUnits="userSpaceOnUse"><stop offset="0" stop-color="#48bd9f"/><stop offset="1" stop-color="#17becd"/></linearGradient></defs><g id="Group_689" data-name="Group 689"><g id="Group_688" data-name="Group 688"><path id="Path_1393" data-name="Path 1393" class="cls-1" d="M20,0A20,20,0,0,0,0,20H0A20,20,0,1,0,20,0Z" transform="translate(0 0)"/><g id="Group_687" data-name="Group 687"><path id="Path_1394" data-name="Path 1394" class="cls-2" d="M25.73,9.43" transform="translate(0 0)"/><g id="Group_686" data-name="Group 686"><path id="Path_1395" data-name="Path 1395" class="cls-3" d="M20,27.14A7.14,7.14,0,1,0,12.86,20,7.15,7.15,0,0,0,20,27.14ZM14.59,20A5.41,5.41,0,1,1,20,25.41,5.42,5.42,0,0,1,14.59,20Z" transform="translate(0 0)"/></g><path id="Path_1396" data-name="Path 1396" class="cls-3" d="M27.13,31.86H12.88A4.85,4.85,0,0,1,8,27V13a4.85,4.85,0,0,1,4.85-4.85H27.13A4.87,4.87,0,0,1,32,13V27A4.86,4.86,0,0,1,27.13,31.86ZM12.88,9.9A3.09,3.09,0,0,0,9.8,13V27a3.08,3.08,0,0,0,3.08,3.08H27.13A3.09,3.09,0,0,0,30.21,27V13A3.09,3.09,0,0,0,27.13,9.9Z" transform="translate(0 0)"/></g><path id="Path_1397" data-name="Path 1397" class="cls-3" d="M27.24,12.05a1.13,1.13,0,1,0,1.13,1.12,1.12,1.12,0,0,0-1.13-1.12Z" transform="translate(0 0)"/></g></g></svg>