<?xml version="1.0" encoding="utf-8"?>
<!-- Generator: Adobe Illustrator 24.0.2, SVG Export Plug-In . SVG Version: 6.00 Build 0)  -->
<svg version="1.1" id="Layer_1" xmlns="http://www.w3.org/2000/svg" xmlns:xlink="http://www.w3.org/1999/xlink" x="0px" y="0px"
	 viewBox="0 0 704.6 365.6" style="enable-background:new 0 0 704.6 365.6;" xml:space="preserve">
<style type="text/css">
	.st0{fill:none;}
	.st1{fill:#46ADA7;}
	.st2{fill:#FFFFFF;}
	.st3{enable-background:new    ;}
	.st4{fill:#E6E7E8;}
</style>
<title>Asset 1logo</title>
<g id="Layer_2_1_">
	<g id="Layer_1-2">
		<polyline class="st0" points="126.9,81.9 118.5,82.9 101,85 94.3,85.8 		"/>
		<circle class="st1" cx="54" cy="69.9" r="17.3"/>
		
			<ellipse transform="matrix(4.531443e-02 -0.999 0.999 4.531443e-02 -241.4298 335.4104)" class="st1" cx="54.8" cy="294" rx="17.3" ry="17.3"/>
		<path class="st2" d="M118.6,302.4c-1,34.7-25.5,60-58,60.3c-33.2,0.3-59.9-25.1-60.1-59.9c-0.7-81.2-0.5-162.4,0-243.6
			C0.6,32.9,17.9,10.4,41.1,3c23.5-7.6,48.5-0.5,64.2,18.6c9.4,11.4,13.4,24.8,13.4,39.3c0,7.3,0,14.7-0.1,22L101,85
			c0-8,0-16-0.1-24.1c-0.3-25.1-17.8-43.6-41.2-43.5C36.3,17.5,18.6,35.7,18.4,61c-0.3,40.1-0.1,80.3-0.1,120.4s-0.2,80.3,0.1,120.4
			c0.2,25.1,16.3,41.9,40.1,43.1c21.8,1,41.1-15.9,42.1-38c0.7-15.9,0.6-24.6,0.6-25.9H119C119,281.7,119,287.3,118.6,302.4z"/>
		<circle class="st2" cx="109.7" cy="83.8" r="17.3"/>
		<circle class="st2" cx="109.7" cy="279.4" r="17.3"/>
		<path class="st2" d="M178,348.4c19.3,13.5,28.6,17,65.1,17.2c37.3,0.3,67.6-29,67.9-63.1c0.7-79.6,0.6-159.3,0-238.9
			c-0.2-25.7-16.3-56.1-46.1-62C238-3.7,195.2,5.7,178,17.5v67.7l19.4-10.8c0,0-0.1-37.7-0.1-41.9c20.6-9,40.9-9.5,55.5-9.4
			c19.6,0.2,37.9,17.6,38.1,42.3c0.4,39.4,0.1,78.8,0.1,118.1s0.3,78.8-0.1,118.1c-0.2,24.6-18.4,41.1-45.1,42.2
			c-24.5,1-34.6-2.2-48.4-9.6c-0.6-12.9,1.3-144.9,1.3-144.9L178,201.3V348.4z"/>
		<circle class="st1" cx="193.5" cy="114.8" r="17.3"/>
		<circle class="st1" cx="100.4" cy="216.8" r="17.3"/>
		<circle class="st1" cx="243.1" cy="294.8" r="17.3"/>
		<path class="st1" d="M54.8,71.2L54.8,71.2c5.2,0,9.4,4.2,9.4,9.4v201.2c0,5.2-4.2,9.4-9.4,9.4h0c-5.2,0-9.4-4.2-9.4-9.4V80.6
			C45.4,75.4,49.6,71.2,54.8,71.2z"/>
		<path class="st1" d="M196.9,114.3l0.8,1.4c2.4,4.1,1,9.4-3.1,11.7L59,205.6c-4.1,2.4-9.4,1-11.7-3.1l-0.8-1.4
			c-2.4-4.1-1-9.4,3.1-11.7l135.5-78.3C189.3,108.8,194.6,110.2,196.9,114.3z"/>
		<path class="st1" d="M242.5,287.8L242.5,287.8c-5.2,0.1-9.4-4.1-9.5-9.3l-2.3-201.2c-0.1-5.2,4.1-9.4,9.3-9.5l0,0
			c5.2-0.1,9.4,4.1,9.5,9.3l2.3,201.2C251.8,283.5,247.7,287.8,242.5,287.8z"/>
		<path class="st1" d="M242.6,131.3l0.4,0.7c2.2,3.9,0.9,8.8-3,11.1L106.8,220c-3.9,2.2-8.8,0.9-11.1-3l-0.4-0.7
			c-2.2-3.9-0.9-8.8,3-11.1l133.2-76.9C235.4,126,240.4,127.4,242.6,131.3z"/>
		<circle class="st1" cx="240.8" cy="69.2" r="17.3"/>
		<g class="st3">
			<path class="st4" d="M359.6,107.2c1.9-0.1,3.2-0.5,4-1.3c0.8-0.8,1.3-1.8,1.4-2.9c0.1-1.1,0.2-3,0.2-5.8V62.4
				c0-2.3,0.1-4.2,0.2-5.8l-5.8,0.3v-3.6h18.2V56c-1.9,0.1-3.2,0.5-4,1.3c-0.8,0.8-1.3,1.8-1.4,2.9c-0.1,1.1-0.2,3-0.2,5.8v13.4
				h28.9V62.4c0-2.3,0.1-4.2,0.2-5.8l-5.8,0.3v-3.6h18.2V56c-1.9,0.1-3.2,0.5-4,1.3c-0.8,0.8-1.3,1.8-1.4,2.9
				c-0.1,1.1-0.2,3-0.2,5.8v34.3c0,2.9-0.1,5-0.2,6.4l5.8-0.3v3.6h-18.2v-2.7c1.9-0.1,3.2-0.5,4-1.3c0.8-0.8,1.3-1.8,1.4-2.9
				c0.1-1.1,0.2-3,0.2-5.8V82.6l-28.9,0.3v17.4c0,2.9-0.1,5-0.2,6.4l5.8-0.3v3.6h-18.2V107.2z"/>
		</g>
		<g class="st3">
			<path class="st4" d="M427.2,107.2c-2.1-2.6-3.2-7.2-3.2-13.6V79.2c0-2.3,0.1-4,0.3-5.2l-5.6,0.2v-3.3h2.5c2.1,0,3.7-0.2,4.8-0.6
				c1.1-0.4,2-0.9,2.7-1.6h2.3v24.6c0,4.7,0.7,8.2,2,10.4c1.3,2.2,3.5,3.3,6.6,3.3c2,0,3.9-0.6,5.9-1.8c1.9-1.2,3.5-2.7,4.6-4.4
				V80.1c0-2.5,0.1-4.6,0.4-6.1l-5.8,0.2v-3.3h2.5c2.1,0,3.7-0.2,4.8-0.6c1.1-0.4,2-0.9,2.7-1.6h2.3L457,99.2c0,3.1-0.1,5.6-0.3,7.6
				l5.8-0.3v3.4h-11.5c-0.3-1.7-0.5-3.3-0.6-4.8c-1.8,1.8-3.8,3.2-6.2,4.4c-2.4,1.2-4.7,1.7-6.9,1.7
				C432.6,111.2,429.3,109.8,427.2,107.2z"/>
			<path class="st4" d="M468.4,107.4c1.6,0,2.7-0.4,3.3-1.2c0.7-0.8,1.1-1.8,1.2-3c0.1-1.2,0.2-3.1,0.2-5.7V79.2
				c0-2.3,0.1-4,0.3-5.2l-5.7,0.3v-3.4c3.2,0,5.4-0.2,6.5-0.5c1.2-0.3,2.2-0.9,3-1.7h2.3c0.1,0.8,0.2,2.2,0.3,4.3
				c1.7-1.5,3.6-2.6,5.7-3.5c2.1-0.9,4.2-1.3,6.2-1.3c2.6,0,4.9,0.5,6.7,1.4c1.9,0.9,3.3,2.3,4.3,4c1.9-1.6,4.1-2.9,6.5-3.9
				c2.4-1,4.7-1.5,6.9-1.5c4.7,0,8.2,1.4,10.4,4.3c2.2,2.9,3.2,7.5,3.1,13.8l-0.1,15c0,2.4-0.1,4.3-0.3,5.5l5.1-0.2v3.3h-16.5v-2.4
				c1.6,0,2.7-0.4,3.3-1.2c0.7-0.8,1.1-1.8,1.2-3c0.1-1.2,0.2-3.1,0.2-5.7V86.3c0-4.6-0.7-8.1-2.2-10.4c-1.5-2.3-3.7-3.4-6.9-3.4
				c-1.7,0-3.3,0.4-5,1.1c-1.7,0.7-3.2,1.7-4.5,2.9c0.5,1.7,0.8,3.6,0.8,5.9l-0.2,19c0,2.4-0.1,4.3-0.3,5.5l5.1-0.2v3.3h-16.5v-2.4
				c1.6,0,2.7-0.4,3.3-1.2c0.7-0.8,1.1-1.7,1.2-2.9c0.1-1.2,0.2-3.1,0.2-5.8l0.1-11.3c0.1-4.7-0.6-8.2-2-10.5
				c-1.4-2.3-3.6-3.5-6.7-3.5c-1.7,0-3.3,0.4-5,1c-1.6,0.7-3.1,1.6-4.2,2.8l0.1,4.4v20.7c0,2.4-0.1,4.3-0.3,5.5l5.1-0.2v3.3h-16.5
				V107.4z"/>
			<path class="st4" d="M542.8,108.5c-2.1-1.8-3.1-4.1-3.1-6.9c0-3.1,1.3-5.8,3.8-7.9c2.5-2.2,5.7-3.8,9.4-4.8
				c3.8-1,7.6-1.5,11.4-1.5v-5c0-3.5-0.5-6.2-1.5-8.2c-1-2-3.2-2.9-6.5-2.9c-1.7,0-3.3,0.4-4.8,1c-1.5,0.7-2.6,1.8-3.3,3.1
				c0.7,0.8,1,1.8,1,3.1c0,0.8-0.3,1.6-0.9,2.3s-1.5,1.1-2.6,1.1s-2-0.4-2.7-1.1c-0.6-0.7-1-1.7-1-2.9c0-1.8,0.7-3.4,2.1-4.9
				c1.4-1.5,3.3-2.7,5.7-3.5c2.4-0.9,5.2-1.3,8.2-1.3c4.5,0,7.9,1.2,10,3.6c2.2,2.4,3.2,6.2,3.1,11.3l-0.1,18.2
				c0,1.7-0.1,3.6-0.3,5.5l5.7-0.3v3.4h-11.5c-0.2-0.8-0.4-2.3-0.6-4.6c-3.9,3.9-8.2,5.9-12.7,5.9
				C547.9,111.2,544.9,110.3,542.8,108.5z M559.2,105.4c1.7-0.8,3.4-2,5.1-3.6c-0.1-0.8-0.1-2.2-0.1-4.1l0.1-7.6
				c-4.4,0.2-8.3,1.1-11.8,2.7c-3.4,1.6-5.2,4.2-5.2,7.5c0,2,0.6,3.5,1.8,4.6c1.2,1.1,2.7,1.6,4.5,1.6
				C555.7,106.6,557.6,106.2,559.2,105.4z"/>
			<path class="st4" d="M582.2,107.4c1.6,0,2.7-0.4,3.3-1.2c0.7-0.8,1.1-1.7,1.2-2.9c0.1-1.2,0.2-3.1,0.2-5.8l0.1-18.4
				c0-2.3,0.1-4,0.3-5.2l-5.7,0.3v-3.4c3.2,0,5.4-0.2,6.5-0.5c1.2-0.3,2.2-0.9,3-1.7h2.3c0.1,1,0.2,2.7,0.3,4.9
				c1.8-1.6,3.9-2.9,6.3-3.9c2.3-1,4.6-1.5,6.9-1.5c4.7,0,8.1,1.5,10.3,4.4c2.2,2.9,3.2,7.5,3.2,13.7v15c0,2.4-0.1,4.3-0.3,5.5
				l5.1-0.2v3.3h-16.5v-2.4c1.6,0,2.7-0.4,3.3-1.2c0.7-0.8,1.1-1.8,1.2-3c0.1-1.2,0.2-3.1,0.2-5.7V86.3c-0.1-4.6-0.8-8.1-2.3-10.5
				c-1.5-2.3-3.7-3.5-6.9-3.5c-1.9,0-3.9,0.5-5.8,1.5c-1.9,1-3.5,2.2-4.7,3.8c0.1,0.6,0.1,1.6,0.1,3.1l-0.1,20.6
				c0,2.4-0.1,4.3-0.3,5.5l5.1-0.2v3.3h-16.5V107.4z"/>
		</g>
		<g class="st3">
			<path class="st4" d="M372.2,203.6c-4.2-2.5-7.4-6-9.8-10.3s-3.5-9.2-3.5-14.5c0-5.3,1.1-10.2,3.2-14.9c2.1-4.6,5.3-8.4,9.5-11.3
				c4.2-2.9,9.3-4.3,15.3-4.3c5.9,0,11.4,1.6,16.3,4.9l-0.4-4.4h4.4v18.7h-2.9c-0.5-5-2.3-8.9-5.3-11.7c-3-2.8-6.8-4.2-11.5-4.2
				c-3.8,0-7.3,1.1-10.5,3.2c-3.1,2.1-5.6,5.2-7.5,9.1s-2.7,8.5-2.7,13.6c0,5,1,9.4,2.9,13.3c1.9,3.9,4.5,6.9,7.8,9.1
				c3.3,2.2,6.9,3.3,10.9,3.3c3.6,0,7.1-0.8,10.4-2.4c3.3-1.6,6.1-3.9,8.2-6.9l2.1,1.7c-3.1,4.4-6.7,7.4-10.7,9.2s-8.1,2.6-12.1,2.6
				C381.1,207.4,376.4,206.2,372.2,203.6z"/>
			<path class="st4" d="M424.7,204.8c-3-1.7-5.3-4.3-7.1-7.5c-1.7-3.3-2.6-7-2.6-11.3c0-3.8,0.9-7.3,2.6-10.6c1.7-3.3,4.1-6,7.2-8
				c3.1-2,6.6-3,10.5-3c3.1,0,5.8,0.7,8.3,2c2.5,1.3,4.4,3.3,5.9,6c1.5,2.7,2.2,5.9,2.2,9.8l-28.4,0.5c-0.1,6.5,1,11.5,3.2,15.1
				c2.2,3.6,5.6,5.4,10.1,5.4c2.5,0,5-0.6,7.6-1.9c2.6-1.3,4.6-2.9,6-4.8l1.9,1.6c-2,3.1-4.7,5.4-8,6.9c-3.3,1.5-6.4,2.3-9.6,2.3
				C431,207.4,427.6,206.6,424.7,204.8z M444.2,179.4c0-3.2-0.7-6-2.2-8.3c-1.5-2.3-3.6-3.5-6.5-3.5c-6.7,0-10.6,3.9-11.9,11.8
				H444.2z"/>
		</g>
		<g class="st3">
			<path class="st4" d="M458.9,203.7c1.6,0,2.7-0.4,3.3-1.2c0.7-0.8,1.1-1.7,1.2-2.9c0.1-1.2,0.2-3.1,0.2-5.8l0.1-18.4
				c0-2.3,0.1-4,0.3-5.2l-5.7,0.3v-3.4c3.2,0,5.4-0.2,6.5-0.5c1.2-0.3,2.2-0.9,3-1.7h2.3c0.1,1,0.2,2.7,0.3,4.9
				c1.8-1.6,3.9-2.9,6.3-3.9c2.3-1,4.6-1.5,6.9-1.5c4.7,0,8.1,1.5,10.3,4.4c2.2,2.9,3.2,7.5,3.2,13.7v15c0,2.4-0.1,4.3-0.3,5.5
				l5.1-0.2v3.3h-16.5v-2.4c1.6,0,2.7-0.4,3.3-1.2c0.7-0.8,1.1-1.8,1.2-3c0.1-1.2,0.2-3.1,0.2-5.7v-11.3c-0.1-4.6-0.8-8.1-2.3-10.5
				c-1.5-2.3-3.7-3.5-6.9-3.5c-1.9,0-3.9,0.5-5.8,1.5c-1.9,1-3.5,2.2-4.7,3.8c0.1,0.6,0.1,1.6,0.1,3.1l-0.1,20.6
				c0,2.4-0.1,4.3-0.3,5.5l5.1-0.2v3.3h-16.5V203.7z"/>
		</g>
		<g class="st3">
			<path class="st4" d="M511.4,192.6l0.2-23.4l-6.2,0.1v-3.5c2.6-0.1,4.8-1.2,6.6-3.5c1.8-2.3,3.1-4.9,4-7.8h2.7v11.3h13.6v3.1
				l-13.6,0.2c-0.1,8.2-0.1,13.9-0.1,17.1c0,3.2,0,5,0,5.3c0,3.8,0.5,6.7,1.4,8.5s2.5,2.8,4.8,2.8c1.4,0,2.8-0.4,4.2-1.3
				c1.4-0.9,2.6-2,3.6-3.6l2.2,1.8c-2.1,3.1-4.2,5.2-6.2,6.2s-4,1.5-6,1.5C515,207.4,511.3,202.5,511.4,192.6z"/>
			<path class="st4" d="M547.9,204.8c-3-1.7-5.3-4.3-7.1-7.5c-1.7-3.3-2.6-7-2.6-11.3c0-3.8,0.9-7.3,2.6-10.6c1.7-3.3,4.1-6,7.2-8
				c3.1-2,6.6-3,10.5-3c3.1,0,5.8,0.7,8.3,2c2.5,1.3,4.4,3.3,5.9,6c1.5,2.7,2.2,5.9,2.2,9.8l-28.4,0.5c-0.1,6.5,1,11.5,3.2,15.1
				c2.2,3.6,5.6,5.4,10.1,5.4c2.5,0,5-0.6,7.6-1.9c2.6-1.3,4.6-2.9,6-4.8l1.9,1.6c-2,3.1-4.7,5.4-8,6.9c-3.3,1.5-6.4,2.3-9.6,2.3
				C554.2,207.4,550.9,206.6,547.9,204.8z M567.4,179.4c0-3.2-0.7-6-2.2-8.3c-1.5-2.3-3.6-3.5-6.5-3.5c-6.7,0-10.6,3.9-11.9,11.8
				H567.4z"/>
		</g>
		<g class="st3">
			<path class="st4" d="M582.2,203.7c1.6,0,2.7-0.4,3.3-1.2c0.7-0.8,1.1-1.8,1.2-3c0.1-1.2,0.2-3.1,0.2-5.7v-18.4
				c0-2.3,0.1-4,0.3-5.2l-5.7,0.2v-3.3h2.5c2,0,3.5-0.2,4.4-0.5c0.9-0.3,1.8-0.9,2.6-1.7h2.3c0.2,2.1,0.3,4.8,0.4,8
				c1.3-2.2,3.3-4.2,5.8-5.9c2.5-1.7,5.1-2.6,7.8-2.6c1.6,0,3,0.4,4,1.3c1.1,0.9,1.6,2.1,1.6,3.8c0,0.9-0.3,1.7-1,2.6
				c-0.7,0.9-1.6,1.3-2.9,1.3c-1.2,0-2.2-0.4-2.9-1.3c-0.8-0.9-1-1.9-0.9-3.2c-2-0.1-4.1,0.7-6.2,2.3c-2.1,1.6-3.8,3.8-5.3,6.5
				l0.1,19.9c0,2.4-0.1,4.3-0.3,5.5l5.1-0.2v3.3h-16.5V203.7z"/>
		</g>
		<g class="st3">
			<path class="st4" d="M626,204.8c-3-1.7-5.3-4.3-7.1-7.5c-1.7-3.3-2.6-7-2.6-11.3c0-3.8,0.9-7.3,2.6-10.6c1.7-3.3,4.1-6,7.2-8
				c3.1-2,6.6-3,10.5-3c3.1,0,5.8,0.7,8.3,2c2.5,1.3,4.4,3.3,5.9,6c1.5,2.7,2.2,5.9,2.2,9.8l-28.4,0.5c-0.1,6.5,1,11.5,3.2,15.1
				c2.2,3.6,5.6,5.4,10.1,5.4c2.5,0,5-0.6,7.6-1.9c2.6-1.3,4.6-2.9,6-4.8l1.9,1.6c-2,3.1-4.7,5.4-8,6.9s-6.4,2.3-9.6,2.3
				C632.4,207.4,629,206.6,626,204.8z M645.5,179.4c0-3.2-0.7-6-2.2-8.3c-1.5-2.3-3.6-3.5-6.5-3.5c-6.7,0-10.6,3.9-11.9,11.8H645.5z
				"/>
		</g>
		<g class="st3">
			<path class="st4" d="M668.2,204.9c-2.6-1.7-4.7-4-6.2-7.1c-1.5-3.1-2.3-6.6-2.3-10.7c0-4.3,0.9-8.2,2.7-11.6
				c1.8-3.4,4.2-6.1,7.4-8.1c3.1-1.9,6.7-2.9,10.7-2.9c1.7,0,3.4,0.2,5.1,0.7c1.7,0.5,3.2,1,4.3,1.6v-11.1c0-2,0.1-3.8,0.2-5.2
				l-5.7,0.3v-3.4c3.2,0,5.4-0.2,6.8-0.6c1.4-0.4,2.4-0.9,3.2-1.6h2.3v52.4c0,1.7-0.1,3.6-0.3,5.5l5.7-0.3v3.4h-11.5
				c-0.3-1.5-0.5-2.9-0.6-4.2c-1.6,1.7-3.5,3.1-5.7,4c-2.2,1-4.6,1.5-7.2,1.5C673.8,207.4,670.8,206.6,668.2,204.9z M685.4,202
				c1.8-1,3.3-2.3,4.6-3.8c-0.1-0.9-0.1-2.3-0.1-4.4l0.1-23.2c-2.5-1.9-5.5-2.8-9-2.8c-3.9,0-7,1.6-9.4,4.8
				c-2.4,3.2-3.6,7.4-3.6,12.7c0,5.5,1,9.9,3.1,13.3c2.1,3.4,5.1,5,8.9,5C681.8,203.5,683.6,203,685.4,202z"/>
		</g>
		<g class="st3">
			<path class="st4" d="M359.6,299.8c1.9-0.1,3.2-0.5,4-1.3c0.8-0.8,1.3-1.8,1.4-2.9c0.1-1.1,0.2-3,0.2-5.8V255
				c0-2.3,0.1-4.2,0.2-5.8l-5.8,0.3v-3.6l19-0.1c10.1-0.1,18.1,2.3,24.1,7.1c5.9,4.8,8.9,11.9,8.9,21.3c0,5.1-1.2,9.7-3.6,14
				c-2.4,4.3-5.9,7.7-10.5,10.3c-4.6,2.6-10.2,3.8-16.7,3.8h-21.2V299.8z M392.7,296c3.5-2.2,6.2-5.2,8.2-9.1
				c1.9-3.9,2.9-8.2,2.9-13c0-7.9-2.2-14-6.5-18.4c-4.3-4.4-10.8-6.7-19.5-6.7c-1.9,0-3.2,0.4-4,1.1c-0.8,0.8-1.3,1.7-1.4,2.8
				c-0.1,1.1-0.2,3-0.2,5.8v34.4c0,2.8-0.1,4.9-0.2,6.3c1.9,0.1,4.8,0.2,8.6,0.2C385.2,299.4,389.2,298.3,392.7,296z"/>
			<path class="st4" d="M428.4,301.1c-3-1.7-5.3-4.3-7.1-7.5c-1.7-3.3-2.6-7-2.6-11.3c0-3.8,0.9-7.3,2.6-10.6c1.7-3.3,4.1-6,7.2-8
				c3.1-2,6.6-3,10.5-3c3.1,0,5.8,0.7,8.3,2c2.5,1.3,4.4,3.3,5.9,6c1.5,2.7,2.2,5.9,2.2,9.8l-28.4,0.5c-0.1,6.5,1,11.5,3.2,15.1
				c2.2,3.6,5.6,5.4,10.1,5.4c2.5,0,5-0.6,7.6-1.9c2.6-1.3,4.6-2.9,6-4.8l1.9,1.6c-2,3.1-4.7,5.4-8,6.9c-3.3,1.5-6.4,2.3-9.6,2.3
				C434.7,303.7,431.4,302.8,428.4,301.1z M447.9,275.7c0-3.2-0.7-6-2.2-8.3c-1.5-2.3-3.6-3.5-6.5-3.5c-6.7,0-10.6,3.9-11.9,11.8
				H447.9z"/>
			<path class="st4" d="M472.2,302.7c-2.1-0.7-3.9-1.5-5.4-2.5l0.3,2.8h-3.4l-0.5-13.9h2.5c0.1,2.2,0.7,4.2,1.8,5.9
				c1.1,1.7,2.6,3.1,4.4,4.1c1.8,1,3.7,1.5,5.8,1.5c2.3,0,4.4-0.6,6.2-1.7c1.8-1.1,2.7-2.7,2.7-4.7c0-1.5-0.4-2.8-1.3-3.8
				c-0.9-1-2-1.9-3.3-2.5c-1.3-0.7-3.2-1.5-5.5-2.4c-2.9-1.1-5.1-2.1-6.9-3c-1.7-0.9-3.2-2.2-4.4-3.8c-1.2-1.6-1.9-3.7-1.9-6.1
				c0-1.8,0.4-3.6,1.3-5.3c0.9-1.8,2.3-3.3,4.4-4.5c2-1.2,4.8-1.9,8.2-1.9c1.7,0,3.4,0.3,5.1,0.8c1.7,0.5,3.4,1.4,4.9,2.7l-0.2-3.1
				h3.4v14.1h-2.6c-0.2-3.1-1.1-5.8-2.9-8.1c-1.7-2.3-4.2-3.4-7.4-3.4c-2.4,0-4.3,0.6-5.8,1.8c-1.4,1.2-2.1,2.7-2.1,4.3
				c0,1.6,0.5,2.9,1.4,4c0.9,1.1,2.1,2,3.5,2.7c1.4,0.8,3.3,1.6,5.7,2.5c2.8,1.1,5.1,2.2,6.8,3.1c1.7,1,3.2,2.2,4.4,3.8
				c1.2,1.6,1.8,3.5,1.8,5.8c0,2.6-0.7,4.8-2,6.5c-1.3,1.8-3,3.1-5.2,4c-2.1,0.9-4.4,1.3-6.8,1.3
				C476.6,303.7,474.3,303.4,472.2,302.7z"/>
			<path class="st4" d="M500,300c1.6,0,2.7-0.4,3.3-1.2c0.7-0.8,1.1-1.8,1.2-3c0.1-1.2,0.2-3.1,0.2-5.7v-18.4c0-1.6,0.1-3.3,0.3-5.2
				l-5.7,0.3v-3.4c3.2,0,5.4-0.2,6.8-0.6c1.4-0.4,2.4-0.9,3.2-1.6h2.3v32.6c0,2.4-0.1,4.3-0.3,5.5l5.1-0.2v3.3H500V300z M505,251.9
				c-0.9-0.9-1.3-2.1-1.3-3.3c0-1.3,0.4-2.4,1.3-3.4c0.9-1,1.9-1.5,3-1.5c1.2,0,2.3,0.5,3.1,1.4c0.8,0.9,1.3,2.1,1.3,3.4
				c0,1.3-0.4,2.4-1.3,3.3s-1.9,1.4-3.1,1.4C506.9,253.3,505.9,252.8,505,251.9z"/>
			<path class="st4" d="M530.7,322.8c-3-1-5.2-2.4-6.6-4c-1.4-1.7-2.1-3.4-2.1-5.3c0-2.3,0.8-4.2,2.3-5.9c1.5-1.7,3.2-2.9,5.2-3.8
				c-1.8-0.6-3.2-1.4-4.2-2.4c-0.9-1-1.4-2.3-1.4-4c0-1.9,0.8-3.7,2.3-5.3c1.5-1.6,3.5-2.6,5.8-3c-2.5-1.2-4.5-2.8-6-5
				c-1.5-2.1-2.2-4.6-2.2-7.3c0-3.1,0.8-5.9,2.5-8.3c1.6-2.4,3.8-4.3,6.4-5.7c2.6-1.3,5.3-2,8.2-2c3.7,0,7.1,1,10.3,3
				c0.8-2.3,2.1-4.2,3.9-5.6c1.8-1.5,3.8-2.2,5.9-2.2c1.3,0,2.4,0.4,3.1,1.1c0.8,0.7,1.1,1.7,1.1,2.9c0,0.8-0.3,1.5-0.8,2.2
				c-0.6,0.7-1.4,1.1-2.5,1.1c-0.9,0-1.7-0.3-2.3-0.8c-0.6-0.5-1-1.2-1.2-2c-1.3,0.2-2.3,0.7-3.1,1.7c-0.8,1-1.3,2.2-1.6,3.6
				c1.3,1.2,2.4,2.7,3.1,4.4c0.8,1.7,1.1,3.4,1.1,5.2c0,3-0.8,5.6-2.3,8c-1.6,2.4-3.6,4.2-6.3,5.6c-2.6,1.3-5.4,2-8.4,2
				c-0.7,0-1.6-0.1-2.7-0.2c-0.8-0.2-1.7-0.2-2.7-0.2c-1.8,0-3.3,0.4-4.5,1.2c-1.2,0.8-1.8,1.7-1.8,2.9c0,1.6,1,2.6,2.9,3.1
				c2,0.5,5.3,0.8,10,1c6.6,0.3,11.6,1.4,14.9,3.2c3.3,1.8,5,4.8,5,8.9c0,2.7-1,5.1-2.9,7.2c-1.9,2-4.4,3.6-7.4,4.7
				c-3,1.1-6.2,1.6-9.5,1.6C537.5,324.3,533.7,323.8,530.7,322.8z M549.8,320c2.2-0.8,3.9-1.8,5.1-3.1c1.2-1.3,1.8-2.8,1.8-4.3
				c0-2.7-1.3-4.6-3.9-5.6c-2.6-1-6.5-1.6-11.6-1.8c-3.4-0.1-6.2-0.3-8.3-0.6c-1.5,1-2.6,2.2-3.4,3.6c-0.8,1.4-1.2,2.9-1.2,4.4
				c0,2.6,1.3,4.7,3.8,6.3c2.5,1.6,5.8,2.4,10,2.4C545,321.1,547.6,320.8,549.8,320z M547.7,285c1.5-2,2.3-4.7,2.3-8
				c0-3.8-0.8-6.9-2.5-9.5c-1.6-2.6-3.9-3.9-6.9-3.9c-2.9,0-5.1,1.1-6.7,3.2c-1.6,2.1-2.4,4.9-2.4,8.2c0,3.9,0.8,7.1,2.5,9.5
				c1.7,2.4,4,3.6,7,3.6C543.9,288.1,546.1,287,547.7,285z"/>
			<path class="st4" d="M567.3,300c1.6,0,2.7-0.4,3.3-1.2c0.7-0.8,1.1-1.7,1.2-2.9c0.1-1.2,0.2-3.1,0.2-5.8l0.1-18.4
				c0-2.3,0.1-4,0.3-5.2l-5.7,0.3v-3.4c3.2,0,5.4-0.2,6.5-0.5c1.2-0.3,2.2-0.9,3-1.7h2.3c0.1,1,0.2,2.7,0.3,4.9
				c1.8-1.6,3.9-2.9,6.3-3.9c2.3-1,4.6-1.5,6.9-1.5c4.7,0,8.1,1.5,10.3,4.4c2.2,2.9,3.2,7.5,3.2,13.7v15c0,2.4-0.1,4.3-0.3,5.5
				l5.1-0.2v3.3h-16.5V300c1.6,0,2.7-0.4,3.3-1.2c0.7-0.8,1.1-1.8,1.2-3c0.1-1.2,0.2-3.1,0.2-5.7v-11.3c-0.1-4.6-0.8-8.1-2.3-10.5
				c-1.5-2.3-3.7-3.5-6.9-3.5c-1.9,0-3.9,0.5-5.8,1.5c-1.9,1-3.5,2.2-4.7,3.8c0.1,0.6,0.1,1.6,0.1,3.1l-0.1,20.6
				c0,2.4-0.1,4.3-0.3,5.5l5.1-0.2v3.3h-16.5V300z"/>
		</g>
	</g>
</g>
</svg>
