<?xml version="1.0" encoding="utf-8"?>
<!-- Generator: Adobe Illustrator 24.0.2, SVG Export Plug-In . SVG Version: 6.00 Build 0)  -->
<svg version="1.1" id="Layer_1" xmlns="http://www.w3.org/2000/svg" xmlns:xlink="http://www.w3.org/1999/xlink" x="0px" y="0px"
	 viewBox="0 0 30 30" style="enable-background:new 0 0 30 30;" xml:space="preserve">
<style type="text/css">
	.st0{fill:#1BBECB;}
</style>
<g id="Group_7" transform="translate(-1505 554.469)">
	<g id="Group_6">
		<g id="Group_5">
			<path id="Path_10" class="st0" d="M1510.48-545.03c-0.13-0.13-0.2-0.31-0.2-0.5v-1.73c-0.01-0.19,0.06-0.37,0.2-0.5
				c0.13-0.13,0.31-0.2,0.5-0.19h17.99c0.19-0.01,0.37,0.06,0.5,0.19c0.13,0.13,0.2,0.31,0.2,0.5v1.73c0.01,0.19-0.06,0.37-0.2,0.5
				c-0.13,0.13-0.31,0.2-0.5,0.2h-17.99C1510.79-544.83,1510.61-544.9,1510.48-545.03z M1510.48-538.11c-0.13-0.13-0.2-0.31-0.2-0.5
				v-1.73c-0.01-0.19,0.06-0.37,0.2-0.5c0.13-0.13,0.31-0.2,0.5-0.19h17.99c0.19-0.01,0.37,0.06,0.5,0.19
				c0.13,0.13,0.2,0.31,0.2,0.5v1.73c0.01,0.19-0.06,0.37-0.2,0.5c-0.13,0.13-0.31,0.2-0.5,0.2h-17.99
				C1510.79-537.91,1510.61-537.98,1510.48-538.11z M1510.48-531.19c-0.13-0.13-0.2-0.31-0.2-0.5v-1.73
				c-0.01-0.19,0.06-0.37,0.2-0.5c0.13-0.13,0.31-0.2,0.5-0.19h17.99c0.19-0.01,0.37,0.06,0.5,0.19c0.13,0.13,0.2,0.31,0.2,0.5v1.73
				c0.01,0.19-0.06,0.37-0.2,0.5c-0.13,0.13-0.31,0.2-0.5,0.2h-17.99C1510.79-530.99,1510.61-531.06,1510.48-531.19z"/>
		</g>
	</g>
</g>
</svg>
