<?xml version="1.0" encoding="utf-8"?>
<!-- Generator: Adobe Illustrator 24.0.2, SVG Export Plug-In . SVG Version: 6.00 Build 0)  -->
<svg version="1.1" id="Layer_1" xmlns="http://www.w3.org/2000/svg" xmlns:xlink="http://www.w3.org/1999/xlink" x="0px" y="0px"
	 viewBox="0 0 56.32 41.53" style="enable-background:new 0 0 56.32 41.53;" xml:space="preserve">
<style type="text/css">
	.st0{fill:url(#Icon_awesome-newspaper_1_);}
</style>
<linearGradient id="Icon_awesome-newspaper_1_" gradientUnits="userSpaceOnUse" x1="3.1532" y1="284.6282" x2="3.1532" y2="283.6282" gradientTransform="matrix(53.5 0 0 -35.665 -140.9443 10154.5479)">
	<stop  offset="0" style="stop-color:#00D3A8"/>
	<stop  offset="1" style="stop-color:#01C0CF"/>
</linearGradient>
<path id="Icon_awesome-newspaper" class="st0" d="M52.27,3.28H9.17c-1.23,0-2.23,1-2.23,2.23c0,0,0,0,0,0v0.74H3.23
	C2,6.26,1,7.25,1,8.48v25.26c0,2.87,2.33,5.2,5.2,5.2c0,0,0,0,0,0h43.84c2.46,0,4.46-1.99,4.46-4.46c0,0,0,0,0,0V5.51
	C54.5,4.28,53.5,3.28,52.27,3.28z M6.2,34.49c-0.41,0-0.74-0.33-0.74-0.74l0,0V10.71h1.49v23.03C6.94,34.16,6.61,34.49,6.2,34.49
	C6.2,34.49,6.2,34.49,6.2,34.49z M28.12,33.01H14c-0.62,0-1.11-0.5-1.11-1.12l0,0v-0.74c0-0.62,0.5-1.11,1.11-1.11h14.12
	c0.62,0,1.11,0.5,1.11,1.12l0,0v0.74C29.24,32.51,28.74,33.01,28.12,33.01L28.12,33.01z M47.44,33.01H33.32
	c-0.62,0-1.12-0.5-1.12-1.12l0,0v-0.74c0-0.62,0.5-1.11,1.12-1.11h14.12c0.62,0,1.12,0.5,1.12,1.11l0,0v0.74
	C48.56,32.51,48.06,33.01,47.44,33.01L47.44,33.01L47.44,33.01z M28.12,24.09H14c-0.62,0-1.11-0.5-1.11-1.11v-0.74
	c0-0.62,0.5-1.11,1.11-1.11h14.12c0.62,0,1.11,0.5,1.11,1.11v0.74C29.24,23.59,28.74,24.09,28.12,24.09z M47.44,24.09H33.32
	c-0.62,0-1.12-0.5-1.12-1.11v-0.74c0-0.62,0.5-1.11,1.12-1.11h14.12c0.62,0,1.12,0.5,1.12,1.11v0v0.74
	C48.56,23.59,48.06,24.09,47.44,24.09L47.44,24.09z M47.44,15.17H14c-0.62,0-1.11-0.5-1.11-1.11v-3.72c0-0.62,0.5-1.11,1.11-1.11
	h33.44c0.62,0,1.12,0.5,1.12,1.11c0,0,0,0,0,0v3.72C48.56,14.67,48.06,15.17,47.44,15.17L47.44,15.17z"/>
</svg>
