<?xml version="1.0" encoding="utf-8"?>
<!-- Generator: Adobe Illustrator 24.0.2, SVG Export Plug-In . SVG Version: 6.00 Build 0)  -->
<svg version="1.1" id="Layer_1" xmlns="http://www.w3.org/2000/svg" xmlns:xlink="http://www.w3.org/1999/xlink" x="0px" y="0px"
	 viewBox="0 0 56.32 59.51" style="enable-background:new 0 0 56.32 59.51;" xml:space="preserve">
<style type="text/css">
	.st0{fill:url(#Path_1136_1_);}
	.st1{fill:url(#Path_1137_1_);}
</style>
<g id="Group_345" transform="translate(0)">
	
		<linearGradient id="Path_1136_1_" gradientUnits="userSpaceOnUse" x1="5.5409" y1="283.59" x2="5.5409" y2="282.59" gradientTransform="matrix(28.676 0 0 -28.676 -119.9103 8160.2598)">
		<stop  offset="0" style="stop-color:#00D3A8"/>
		<stop  offset="1" style="stop-color:#01C0CF"/>
	</linearGradient>
	<path id="Path_1136" class="st0" d="M24.64,42.37c0,7.92,6.42,14.34,14.34,14.34s14.34-6.42,14.34-14.34
		c0-7.92-6.42-14.34-14.34-14.34l0,0C31.06,28.03,24.64,34.45,24.64,42.37z M33.38,36.77c0.75-0.75,1.95-0.74,2.7,0s0.74,1.95,0,2.7
		c-0.75,0.75-1.95,0.74-2.7,0c-0.36-0.36-0.56-0.84-0.56-1.35C32.82,37.62,33.02,37.13,33.38,36.77z M44.58,47.97
		c-0.75,0.75-1.95,0.74-2.7,0c-0.75-0.75-0.74-1.95,0-2.7c0.75-0.75,1.95-0.74,2.7,0c0.36,0.36,0.56,0.84,0.56,1.35
		C45.14,47.13,44.94,47.61,44.58,47.97L44.58,47.97z M44.56,36.8c0.75,0.75,0.75,1.95,0,2.7c0,0,0,0,0,0l-8.45,8.45
		c-0.75,0.75-1.95,0.75-2.7,0s-0.75-1.95,0-2.7l8.45-8.45C42.6,36.05,43.81,36.05,44.56,36.8C44.56,36.8,44.56,36.8,44.56,36.8
		L44.56,36.8z"/>
	
		<linearGradient id="Path_1137_1_" gradientUnits="userSpaceOnUse" x1="4.4755" y1="286.1539" x2="4.4755" y2="285.1539" gradientTransform="matrix(36.361 0 0 -54.509 -140.9443 15600.4629)">
		<stop  offset="0" style="stop-color:#00D3A8"/>
		<stop  offset="1" style="stop-color:#01C0CF"/>
	</linearGradient>
	<path id="Path_1137" class="st1" d="M20.82,42.37c0.01-10.02,8.13-18.14,18.16-18.16c0.33,0,0.66,0.01,0.99,0.03V4.41
		c0-1.05-0.85-1.91-1.91-1.91c0,0,0,0,0,0H5.52c-1.05,0-1.91,0.85-1.91,1.91c0,0,0,0,0,0V55.1c0,1.05,0.85,1.91,1.91,1.91h0h22.74
		C23.59,53.59,20.83,48.16,20.82,42.37z M14.4,12.64h13.52c1.05-0.02,1.93,0.81,1.95,1.86c0.02,1.05-0.81,1.93-1.86,1.95
		c-0.03,0-0.06,0-0.09,0H14.4c-1.05-0.02-1.89-0.9-1.86-1.95C12.56,13.48,13.38,12.66,14.4,12.64z M14.4,22.78h13.52
		c1.05-0.02,1.93,0.81,1.95,1.86c0.02,1.05-0.81,1.93-1.86,1.95c-0.03,0-0.06,0-0.09,0H14.4c-1.05-0.02-1.89-0.9-1.86-1.95
		C12.56,23.62,13.38,22.8,14.4,22.78z M17.78,36.73H14.4c-1.05-0.02-1.89-0.9-1.86-1.95c0.02-1.02,0.84-1.84,1.86-1.86h3.38
		c1.05,0.02,1.89,0.9,1.86,1.95C19.62,35.89,18.8,36.71,17.78,36.73z"/>
</g>
</svg>
