<?xml version="1.0" encoding="utf-8"?>
<!-- Generator: Adobe Illustrator 24.0.2, SVG Export Plug-In . SVG Version: 6.00 Build 0)  -->
<svg version="1.1" id="Layer_1" xmlns="http://www.w3.org/2000/svg" xmlns:xlink="http://www.w3.org/1999/xlink" x="0px" y="0px"
	 viewBox="0 0 30 30" style="enable-background:new 0 0 30 30;" xml:space="preserve">
<style type="text/css">
	.st0{fill:none;}
	.st1{fill:none;stroke:#707071;}
	.st2{fill:#4374BA;}
	.st3{fill:none;stroke:#4374BA;stroke-linecap:round;stroke-miterlimit:10;stroke-dasharray:3,3;}
	.st4{fill:#1BBECB;}
	.st5{fill:none;stroke:#1BBECB;stroke-linecap:round;stroke-miterlimit:10;stroke-dasharray:3,3;}
</style>
<g id="Rectangle_1499">
	<rect x="-950.46" y="-26.8" class="st0" width="1920" height="70"/>
	<rect x="-949.96" y="-26.3" class="st1" width="1919" height="69"/>
</g>
<g id="Group_21" transform="translate(88.656 -60)">
	<path id="Path_9" class="st2" d="M500.9,75.67c0,0.19-0.07,0.37-0.2,0.5l-0.82,0.82c-0.13,0.13-0.31,0.21-0.5,0.21
		c-0.19,0-0.37-0.07-0.5-0.21l-2.93-2.93c-0.13-0.13-0.21-0.31-0.2-0.5v-0.47c-1.06,0.85-2.39,1.3-3.75,1.29
		c-1.08,0.01-2.13-0.27-3.06-0.82c-0.92-0.53-1.68-1.3-2.21-2.21c-0.55-0.93-0.83-1.99-0.82-3.06c-0.01-1.08,0.27-2.13,0.82-3.06
		c0.53-0.92,1.3-1.68,2.21-2.21c0.93-0.55,1.99-0.83,3.06-0.82c1.08-0.01,2.13,0.27,3.06,0.82c0.92,0.53,1.68,1.3,2.21,2.21
		c0.55,0.93,0.83,1.98,0.82,3.06c0.02,1.36-0.44,2.69-1.29,3.75h0.47c0.19,0,0.37,0.07,0.5,0.2l2.93,2.93
		C500.84,75.3,500.91,75.48,500.9,75.67z M493.89,71.54c0.57-0.32,1.04-0.79,1.36-1.36c0.33-0.57,0.5-1.23,0.5-1.89
		c0-0.66-0.17-1.32-0.5-1.89c-0.32-0.57-0.8-1.04-1.36-1.36c-0.57-0.33-1.23-0.5-1.89-0.5c-0.66,0-1.32,0.17-1.89,0.5
		c-0.57,0.32-1.04,0.8-1.36,1.36c-0.33,0.57-0.5,1.23-0.5,1.89c0,0.66,0.17,1.32,0.5,1.89c0.32,0.57,0.79,1.04,1.36,1.36
		c0.57,0.33,1.23,0.51,1.89,0.5C492.66,72.05,493.31,71.87,493.89,71.54L493.89,71.54z"/>
	<circle id="Ellipse_2" class="st3" cx="493" cy="68.8" r="17.11"/>
</g>
<g id="Rectangle_1499_1_">
	<rect x="-950.46" y="-26.8" class="st0" width="1920" height="70"/>
	<rect x="-949.96" y="-26.3" class="st1" width="1919" height="69"/>
</g>
<g id="Group_21_1_" transform="translate(88.656 -60)">
	<path id="Path_9_1_" class="st2" d="M500.9,75.67c0,0.19-0.07,0.37-0.2,0.5l-0.82,0.82c-0.13,0.13-0.31,0.21-0.5,0.21
		c-0.19,0-0.37-0.07-0.5-0.21l-2.93-2.93c-0.13-0.13-0.21-0.31-0.2-0.5v-0.47c-1.06,0.85-2.39,1.3-3.75,1.29
		c-1.08,0.01-2.13-0.27-3.06-0.82c-0.92-0.53-1.68-1.3-2.21-2.21c-0.55-0.93-0.83-1.99-0.82-3.06c-0.01-1.08,0.27-2.13,0.82-3.06
		c0.53-0.92,1.3-1.68,2.21-2.21c0.93-0.55,1.99-0.83,3.06-0.82c1.08-0.01,2.13,0.27,3.06,0.82c0.92,0.53,1.68,1.3,2.21,2.21
		c0.55,0.93,0.83,1.98,0.82,3.06c0.02,1.36-0.44,2.69-1.29,3.75h0.47c0.19,0,0.37,0.07,0.5,0.2l2.93,2.93
		C500.84,75.3,500.91,75.48,500.9,75.67z M493.89,71.54c0.57-0.32,1.04-0.79,1.36-1.36c0.33-0.57,0.5-1.23,0.5-1.89
		c0-0.66-0.17-1.32-0.5-1.89c-0.32-0.57-0.8-1.04-1.36-1.36c-0.57-0.33-1.23-0.5-1.89-0.5c-0.66,0-1.32,0.17-1.89,0.5
		c-0.57,0.32-1.04,0.8-1.36,1.36c-0.33,0.57-0.5,1.23-0.5,1.89c0,0.66,0.17,1.32,0.5,1.89c0.32,0.57,0.79,1.04,1.36,1.36
		c0.57,0.33,1.23,0.51,1.89,0.5C492.66,72.05,493.31,71.87,493.89,71.54L493.89,71.54z"/>
	<circle id="Ellipse_2_1_" class="st3" cx="493" cy="68.8" r="17.11"/>
</g>
<g id="Rectangle_1499_2_">
	<rect x="-950.46" y="-26.8" class="st0" width="1920" height="70"/>
	<rect x="-949.96" y="-26.3" class="st1" width="1919" height="69"/>
</g>
<g id="Group_21_2_" transform="translate(88.656 -60)">
	<path id="Path_9_2_" class="st4" d="M-66.91,80.73c0,0.16-0.06,0.31-0.17,0.42l-0.68,0.68c-0.11,0.11-0.26,0.17-0.42,0.17
		c-0.16,0-0.31-0.06-0.42-0.17l-2.44-2.44c-0.11-0.11-0.17-0.26-0.17-0.42v-0.39c-0.89,0.71-1.99,1.09-3.13,1.07
		c-0.9,0.01-1.78-0.23-2.55-0.68c-0.76-0.45-1.4-1.08-1.84-1.84c-0.46-0.77-0.69-1.66-0.68-2.55c-0.01-0.9,0.23-1.78,0.68-2.55
		c0.45-0.76,1.08-1.4,1.84-1.84c0.77-0.46,1.66-0.69,2.55-0.68c0.9-0.01,1.78,0.23,2.55,0.68c0.76,0.45,1.4,1.08,1.84,1.84
		c0.46,0.77,0.69,1.65,0.68,2.55c0.01,1.13-0.37,2.24-1.08,3.13h0.39c0.16,0,0.31,0.06,0.42,0.17l2.44,2.44
		C-66.96,80.42-66.9,80.57-66.91,80.73z M-72.76,77.29c0.47-0.27,0.87-0.66,1.14-1.14c0.28-0.48,0.42-1.02,0.42-1.58
		c0-0.55-0.14-1.1-0.42-1.57c-0.27-0.47-0.66-0.87-1.14-1.14c-0.48-0.28-1.02-0.42-1.57-0.42c-0.55,0-1.1,0.14-1.58,0.42
		c-0.47,0.27-0.87,0.66-1.14,1.14c-0.28,0.48-0.42,1.02-0.42,1.57c0,0.55,0.14,1.1,0.42,1.58c0.27,0.47,0.66,0.87,1.14,1.14
		c0.48,0.28,1.02,0.42,1.58,0.42C-73.78,77.71-73.23,77.56-72.76,77.29L-72.76,77.29z"/>
	<circle id="Ellipse_2_2_" class="st5" cx="-73.5" cy="75" r="14.26"/>
</g>
</svg>
